<svg xmlns="http://www.w3.org/2000/svg" width="245" height="12" viewBox="0 0 245 12">
    <g fill="none" fill-rule="evenodd">
        <g fill="#F5D14A">
            <g>
                <path d="M241.618 0C243.486 0 245 1.514 245 3.382v5.236c0 1.868-1.514 3.382-3.382 3.382-1.607 0-2.953-1.121-3.297-2.624H6.68C6.335 10.879 4.989 12 3.382 12 1.514 12 0 10.486 0 8.618V3.382C0 1.514 1.514 0 3.382 0 4.99 0 6.335 1.122 6.679 2.625H238.32c.344-1.503 1.69-2.625 3.297-2.625z" transform="translate(-65.000000, -213.000000) translate(65.000000, 213.000000)"/>
            </g>
        </g>
    </g>
</svg>
