<svg xmlns="http://www.w3.org/2000/svg" width="32" height="32" viewBox="0 0 32 32">
    <g fill="none" fill-rule="evenodd">
        <g fill-rule="nonzero">
            <g>
                <g>
                    <path fill="#FBBF23" d="M6 0c3.314 0 6 2.686 6 6s-2.686 6-6 6-6-2.686-6-6 2.686-6 6-6zm0 3.13C4.415 3.13 3.13 4.415 3.13 6c0 1.585 1.285 2.87 2.87 2.87 1.585 0 2.87-1.285 2.87-2.87 0-1.585-1.285-2.87-2.87-2.87z" transform="translate(-273.000000, -521.000000) translate(273.000000, 521.000000) translate(4.000000, 0.000000)"/>
                    <path fill="#D9A216" d="M18.722 21.137c.387-.26.901-.14 1.148.27.238.396.14.916-.217 1.186l-.039.028-3.336 2.242c-.387.26-.901.14-1.148-.27-.238-.396-.14-.916.217-1.186l.039-.028 3.336-2.242z" transform="translate(-273.000000, -521.000000) translate(273.000000, 521.000000) translate(4.000000, 0.000000)"/>
                    <path fill="#D9A216" d="M18.58 23.145c.441-.285 1.015-.137 1.284.33.259.45.137 1.032-.267 1.328l-.045.03-3.133 2.022c-.44.285-1.014.137-1.283-.33-.259-.45-.137-1.032.267-1.328l.045-.03 3.133-2.022z" transform="translate(-273.000000, -521.000000) translate(273.000000, 521.000000) translate(4.000000, 0.000000)"/>
                    <path fill="#D9A216" d="M21.536 23.143c.448-.275 1.038-.141 1.319.299.27.425.152.98-.26 1.266l-.045.03-5.086 3.12c-.448.274-1.038.14-1.319-.3-.27-.425-.152-.98.26-1.266l.045-.03 5.086-3.12z" transform="translate(-273.000000, -521.000000) translate(273.000000, 521.000000) translate(4.000000, 0.000000)"/>
                    <path fill="#FBBF23" d="M7.737 11.158c.687-.34 1.55-.113 1.926.509L20.825 30.1c.377.621.125 1.4-.562 1.741-.687.34-1.55.113-1.926-.509L7.175 12.9c-.377-.621-.125-1.4.562-1.741z" transform="translate(-273.000000, -521.000000) translate(273.000000, 521.000000) translate(4.000000, 0.000000)"/>
                    <path fill="#D9A216" d="M10.68 13.098c.452-.231 1-.04 1.225.427.216.45.051.994-.367 1.24l-.046.025-2.172 1.112c-.452.231-1 .04-1.225-.427-.216-.45-.051-.994.367-1.24l.046-.025 2.172-1.112zM9.68 11.098c.452-.231 1-.04 1.225.427.216.45.051.994-.367 1.24l-.046.025-2.172 1.112c-.452.231-1 .04-1.225-.427-.216-.45-.051-.994.367-1.24l.046-.025 2.172-1.112z" transform="translate(-273.000000, -521.000000) translate(273.000000, 521.000000) translate(4.000000, 0.000000)"/>
                </g>
            </g>
        </g>
    </g>
</svg>
