<svg xmlns="http://www.w3.org/2000/svg" width="24" height="24" viewBox="0 0 24 24">
    <g fill="none" fill-rule="evenodd">
        <g fill-rule="nonzero">
            <g>
                <path fill="#FFF" d="M0 0L6 0 6 1.5 4.5 1.5 4.5 7.5 6 7.5 6 9 9 9 9 24 0 24z" transform="translate(-176.000000, -141.000000) translate(176.000000, 141.000000)"/>
                <path fill="#FFCE11" d="M6 0L15 0 15 1.5 16.5 1.5 16.5 7.5 15 7.5 15 9 12 9 12 16.5 15 16.5 15 19.5 12 19.5 12 21 15 21 15 24 9 24 9 9 6 9 6 7.5 4.5 7.5 4.5 1.5 6 1.5z" transform="translate(-176.000000, -141.000000) translate(176.000000, 141.000000)"/>
                <path fill="#FFF" d="M15 0L24 0 24 24 15 24 15 21 12 21 12 19.5 15 19.5 15 16.5 12 16.5 12 9 15 9 15 7.5 16.5 7.5 16.5 1.5 15 1.5z" transform="translate(-176.000000, -141.000000) translate(176.000000, 141.000000)"/>
                <path fill="#FFF" d="M7.5 3L13.5 3 13.5 6 7.5 6z" transform="translate(-176.000000, -141.000000) translate(176.000000, 141.000000)"/>
            </g>
        </g>
    </g>
</svg>
