<svg xmlns="http://www.w3.org/2000/svg" width="148" height="117" viewBox="0 0 148 117">
    <g fill="none" fill-rule="evenodd">
        <g>
            <g>
                <g fill="#1A961B">
                    <path d="M8.746 4.132l1.509 10.244c-4.785-2.05-8.112-1.722-9.98.983-2.8 4.057 16.624 8.515 18.656 6.286 1.355-1.486.64-7.324-2.143-17.513M35.573.143l1.54 9.509c3.543-1.31 6.165-.163 7.866 3.442 2.552 5.407-11.59 6.824-14.244 5.407-1.769-.945-2.79-6.324-3.061-16.136" transform="translate(-133.000000, -265.000000) translate(133.000000, 265.000000) translate(57.984849, 93.322590)"/>
                </g>
                <g>
                    <path fill="#1A961B" d="M9.242 4.132l1.509 10.244c-4.785-2.05-8.111-1.722-9.98.983-2.8 4.057 16.624 8.515 18.656 6.286 1.355-1.486.64-7.324-2.143-17.513M36.07.143l1.539 9.509c3.543-1.31 6.165-.163 7.866 3.442 2.552 5.407-11.59 6.824-14.244 5.407-1.769-.945-2.79-6.324-3.061-16.136" transform="translate(-133.000000, -265.000000) translate(133.000000, 265.000000) translate(57.488740, 93.322590)"/>
                    <path fill="#1C1B1B" fill-rule="nonzero" d="M11.74 12.017c.269.397.165.937-.231 1.206-2.67 1.812-4.906 2.632-6.753 2.401-1.824-.227-3.338-1.099-4.5-2.585-.295-.377-.228-.923.15-1.218.378-.295.923-.229 1.218.15.881 1.126 1.982 1.76 3.347 1.93 1.053.132 2.433-.263 4.117-1.213l.232-.133c.31-.182.632-.382.963-.6l.25-.169c.397-.269.937-.165 1.207.231z" transform="translate(-133.000000, -265.000000) translate(133.000000, 265.000000) translate(57.488740, 93.322590) translate(5.980835, 13.649397) scale(1, -1) translate(-5.980835, -13.649397)"/>
                    <path fill="#1C1B1B" fill-rule="nonzero" d="M43.956 8.538c.278-.391.82-.483 1.21-.206.392.278.484.82.207 1.21-1.86 2.622-3.766 3.891-5.749 3.644-1.824-.228-3.338-1.1-4.499-2.585-.295-.378-.228-.923.15-1.219.377-.295.923-.228 1.218.15.881 1.127 1.982 1.76 3.346 1.93 1.206.151 2.588-.769 4.117-2.924z" transform="translate(-133.000000, -265.000000) translate(133.000000, 265.000000) translate(57.488740, 93.322590) translate(40.236907, 10.694109) scale(1, -1) translate(-40.236907, -10.694109)"/>
                </g>
                <g transform="translate(-133.000000, -265.000000) translate(133.000000, 265.000000) translate(34.923991, 9.232018)">
                    <path fill="#EF7F27" d="M.009 42.879c-.29 21.115 6.732 34.39 21.07 39.822 21.504 8.149 36.068 2.301 48.376-9.432 12.308-11.734 8.891-34.518 6.099-40.439-2.793-5.92-9.758-18.404-40.64-16.768C14.323 17.152 2.69 26.092.008 42.88z"/>
                    <g transform="translate(19.183250, 0.136857)">
                        <circle cx="8.355" cy="51.385" r="8.355" fill="#FFF"/>
                        <path fill="#1C1B1B" fill-rule="nonzero" d="M66.997.4c.091-.47.547-.778 1.018-.686.455.088.757.517.694.97l-.008.048-1.695 8.73c-.091.472-.547.78-1.018.688-.455-.089-.757-.517-.694-.971l.007-.047L66.997.4z" transform="translate(67.001393, 4.931774) rotate(-49.000000) translate(-67.001393, -4.931774)"/>
                        <circle cx="26.109" cy="48.747" r="8.355" fill="#FFF"/>
                        <path fill="#1C1B1B" fill-rule="nonzero" d="M21.641 59.83c1.55-.068 2.762.925 3.6 2.78.198.437.004.951-.433 1.149-.437.197-.951.003-1.149-.434-.535-1.184-1.123-1.717-1.792-1.758l-.058-.003-.032.016-.075.037-.117.06-.208.115-.96.552-.212.12-.137.075-.12.063-.107.053-.033.015-.061.028-.058.024-.054.02-.052.017-.049.013-.024.006-.047.01-.023.003-.047.007-.047.004-.049.002-.076.002c-.393 0-.756-.068-1.27-.217l-.2-.06-.615-.19-.165-.05-.097-.026-.127-.033-.076-.017-.07-.014-.07-.012-.014.014c-.085.087-.19.243-.301.465l-.03.062c-.107.22-.213.485-.317.795l-.063.19-.063.203-.062.212-.031.11-.062.228-.061.239-.061.249-.03.129-.061.264-.06.276-.06.285c-.096.47-.555.773-1.025.677-.47-.096-.772-.555-.676-1.024l.05-.245.052-.238.051-.233.052-.227.053-.22.053-.216.054-.209.027-.102.055-.2.028-.098.056-.191.028-.094.057-.182.058-.176.059-.17c.03-.085.06-.166.09-.245l.062-.156.062-.15.064-.143c.534-1.17 1.186-1.715 2.07-1.616l.095.011.093.014.046.007.092.017.095.02.098.022.104.026.17.047.125.036.287.088.402.126.151.045.138.04.125.033.115.027c.055.013.106.023.154.031l.093.015.043.005.056.005.054-.025.08-.04.178-.094.241-.135.874-.504.2-.112.166-.091.107-.056.064-.031.086-.04.052-.021.049-.019.023-.008.045-.014.043-.012.043-.01.041-.006.043-.006.065-.006.046-.003.024-.001z" transform="translate(19.427390, 63.215237) scale(1, -1) translate(-19.427390, -63.215237)"/>
                    </g>
                    <circle cx="42.288" cy="48.022" r="3.181" fill="#1C1B1B"/>
                    <circle cx="23.976" cy="52.644" r="3.181" fill="#1C1B1B"/>
                </g>
                <path fill="#EF7F27" d="M114.249 70.338c2.5-.847 4.559-2.658 5.717-5.03l3.11-6.371c.47-1.182.554-1.958.255-2.33-.449-.558-4.114-3.414-4.697-4.139-.584-.726-.844-1.691-.407-2.433.437-.742 1.67-.942 3.341-.03.782.427 1.654 1.124 2.617 2.091.238.24.626.24.866.002.134-.134.199-.322.175-.51-.157-1.258-.416-2.5-.774-3.716l-.584-1.989c-.467-1.586-.156-3.3.838-4.62 1.133-1.507 3.115-2.1 4.889-1.462 3.362 1.207 5.51 4.068 6.445 8.58.918 4.433-.192 7.073-.936 9.869-.729 2.74-4.227 7.762-7.726 12.376-2.616 3.45-6.778 7.161-12.486 11.136-.453.316-1.076.204-1.392-.249-.058-.083-.103-.174-.133-.27" transform="translate(-133.000000, -265.000000) translate(133.000000, 265.000000) translate(123.364176, 60.846865) scale(1, -1) rotate(40.000000) translate(-123.364176, -60.846865)"/>
                <path fill="#1C1B1B" fill-rule="nonzero" d="M119.288 54.455c.218-.428.74-.598 1.168-.38.412.21.585.705.4 1.123l-.02.045-5.132 10.077c-.107.21-.293.366-.515.435l-.052.015-3.021.741c-.466.114-.936-.17-1.05-.636-.11-.45.152-.905.59-1.038l.046-.012 2.635-.647 4.951-9.723z" transform="translate(-133.000000, -265.000000) translate(133.000000, 265.000000) translate(115.985340, 60.258221) scale(1, -1) rotate(47.000000) translate(-115.985340, -60.258221)"/>
                <path fill="#EF7F27" d="M14.822 75.105c2.5-.846 4.559-2.657 5.717-5.03l3.11-6.37c.47-1.182.554-1.959.255-2.33-.449-.558-4.114-3.414-4.697-4.14-.584-.725-.844-1.69-.407-2.432s1.67-.942 3.341-.03c.782.427 1.654 1.124 2.617 2.09.238.24.626.241.866.003.134-.134.199-.322.175-.51-.157-1.258-.416-2.5-.773-3.717l-.585-1.988c-.466-1.587-.156-3.3.838-4.621 1.133-1.506 3.115-2.099 4.889-1.462 3.363 1.208 5.511 4.068 6.445 8.58.918 4.433-.191 7.074-.935 9.87-.73 2.739-4.228 7.762-7.727 12.375-2.616 3.45-6.778 7.162-12.486 11.137-.453.316-1.076.204-1.392-.25-.058-.082-.102-.173-.133-.27" transform="translate(-133.000000, -265.000000) translate(133.000000, 265.000000) translate(23.937287, 65.614458) scale(-1, 1) rotate(40.000000) translate(-23.937287, -65.614458)"/>
                <path fill="#1C1B1B" fill-rule="nonzero" d="M36.794 57.356c.256-.406.792-.527 1.198-.272.391.247.518.756.296 1.155l-.025.043-7.101 11.26c-.112.178-.284.308-.484.369l-.05.013-6.182 1.463c-.467.11-.934-.178-1.045-.645-.107-.45.16-.903.6-1.032l.045-.013 5.836-1.381 6.912-10.96z" transform="translate(-133.000000, -265.000000) translate(133.000000, 265.000000) translate(30.887231, 64.180494) scale(-1, 1) rotate(40.000000) translate(-30.887231, -64.180494)"/>
                <path fill="#1C1B1B" fill-rule="nonzero" d="M139.676 67.522c.258-.045.503.118.566.368l.008.036.816 4.689c.047.27-.134.527-.404.574-.257.045-.503-.118-.566-.368l-.007-.036-.817-4.689c-.047-.27.134-.527.404-.574z" transform="translate(-133.000000, -265.000000) translate(133.000000, 265.000000) translate(140.169100, 70.355559) scale(-1, 1) rotate(40.000000) translate(-140.169100, -70.355559)"/>
                <path fill="#1C1B1B" fill-rule="nonzero" d="M137.279 69.572c.257-.045.503.118.566.367l.008.037.816 4.689c.047.27-.134.526-.404.573-.257.045-.503-.117-.566-.367l-.008-.036-.816-4.69c-.047-.27.134-.526.404-.573z" transform="translate(-133.000000, -265.000000) translate(133.000000, 265.000000) translate(137.772074, 72.405191) scale(-1, 1) rotate(40.000000) translate(-137.772074, -72.405191)"/>
                <g>
                    <path fill="#1C1B1B" fill-rule="nonzero" d="M97.406 9.095c.43-.17.916.028 1.107.445l.019.043 6.641 16.822c.176.446-.043.95-.489 1.126-.43.17-.916-.028-1.107-.445l-.019-.044-6.641-16.82c-.176-.447.043-.951.489-1.127z" transform="translate(-133.000000, -265.000000) translate(133.000000, 265.000000) translate(17.865701, 0.000000)"/>
                    <path fill="#1C1B1B" fill-rule="nonzero" d="M47.163 43.748c.462.032.814.421.807.88l-.002.047-.688 9.767c-.034.478-.449.839-.927.805-.463-.032-.815-.421-.807-.88l.002-.047.688-9.767c.032-.463.421-.815.879-.807l.048.002z" transform="translate(-133.000000, -265.000000) translate(133.000000, 265.000000) translate(17.865701, 0.000000) translate(46.757700, 49.497385) rotate(-49.000000) translate(-46.757700, -49.497385)"/>
                    <path fill="#1C1B1B" fill-rule="nonzero" d="M56.932 45.774c.462-.045.874.28.942.733l.006.048.771 7.979c.046.477-.303.901-.78.948-.462.044-.873-.28-.942-.734l-.006-.047-.771-7.98c-.046-.477.303-.9.78-.947z" transform="translate(-133.000000, -265.000000) translate(133.000000, 265.000000) translate(17.865701, 0.000000) translate(57.401519, 50.627809) scale(-1, 1) rotate(-49.000000) translate(-57.401519, -50.627809)"/>
                    <path fill="#403B30" d="M16.523 21.596v5.266c0 3.117 2.386 5.715 5.492 5.978 10.918.928 21.452 1.392 31.6 1.392 10.254 0 20.356-1.181 30.308-3.543 2.705-.642 4.614-3.058 4.614-5.838V12.176" transform="translate(-133.000000, -265.000000) translate(133.000000, 265.000000) translate(17.865701, 0.000000)"/>
                    <path fill="#514B41" d="M45.61.471L7.358 17.831c-1.006.456-1.451 1.641-.995 2.647.307.675.962 1.126 1.703 1.17l44.776 2.657c.511.03 1.024-.038 1.51-.2l41.354-13.88c1.047-.352 1.61-1.486 1.26-2.533-.244-.725-.88-1.248-1.638-1.347L47.78.147c-.74-.096-1.491.016-2.17.324z" transform="translate(-133.000000, -265.000000) translate(133.000000, 265.000000) translate(17.865701, 0.000000)"/>
                    <path fill="#1C1B1B" fill-rule="nonzero" d="M92.465 9.145c.387-.144.812.07.949.48.131.395-.055.827-.417.985l-.038.015-39.22 14.55c-.388.144-.813-.071-.95-.48-.131-.395.055-.827.418-.985l.038-.015 39.22-14.55zM8.923 20.467l.043.002 39.694 2.952c.43.032.755.446.727.924-.028.462-.377.816-.788.81l-.043-.002-39.694-2.951c-.43-.032-.755-.446-.727-.924.028-.463.377-.817.788-.81z" transform="translate(-133.000000, -265.000000) translate(133.000000, 265.000000) translate(17.865701, 0.000000)"/>
                </g>
                <path fill="#FFF74E" d="M32.92 43.262c-.394 1.824-1.173 3.319-2.337 4.482-1.164 1.164-2.662 1.947-4.493 2.348 1.983.9 3.651 2.026 5.005 3.38 1.353 1.353 2.452 2.994 3.296 4.921-.146-2.27.254-4.09 1.202-5.457.947-1.369 2.464-2.316 4.549-2.844-1.91-.502-3.426-1.285-4.55-2.348-1.123-1.062-2.014-2.556-2.672-4.482z" transform="translate(-133.000000, -265.000000) translate(133.000000, 265.000000)"/>
                <path fill="#1C1B1B" fill-rule="nonzero" d="M32.193 43.105c-.365 1.689-1.077 3.054-2.136 4.113-1.06 1.06-2.43 1.775-4.126 2.147-.7.153-.8 1.11-.148 1.405 1.904.863 3.497 1.94 4.785 3.228 1.287 1.286 2.334 2.85 3.142 4.694.334.763 1.478.484 1.424-.347-.137-2.114.227-3.769 1.07-4.986.838-1.208 2.2-2.06 4.12-2.546.746-.188.75-1.245.007-1.44-1.795-.473-3.2-1.198-4.227-2.17-1.029-.972-1.858-2.363-2.48-4.182-.243-.713-1.272-.653-1.43.084zm.823 2.322l.032.065c.568 1.116 1.245 2.048 2.033 2.793l.109.101c.732.668 1.605 1.228 2.616 1.68l.087.038-.028.013c-1.221.59-2.186 1.387-2.884 2.395l-.068.1c-.557.836-.933 1.81-1.13 2.917l-.018.1-.101-.158c-.604-.926-1.285-1.768-2.043-2.526l-.143-.141c-.96-.935-2.065-1.763-3.311-2.483l-.102-.058.036-.014c1.158-.473 2.163-1.133 3.008-1.978.775-.776 1.393-1.683 1.853-2.72l.054-.124z" transform="translate(-133.000000, -265.000000) translate(133.000000, 265.000000)"/>
                <g fill="#1C1B1B" transform="translate(-133.000000, -265.000000) translate(133.000000, 265.000000) translate(94.949728, 70.083603) scale(-1, -1) translate(-94.949728, -70.083603) translate(90.449728, 66.583603)">
                    <circle cx=".868" cy="1.364" r="1"/>
                    <circle cx="2.189" cy="3.845" r="1"/>
                    <circle cx="4.297" cy="1.736" r="1"/>
                    <circle cx="5.537" cy="5.581" r="1"/>
                    <circle cx="7.274" cy=".868" r="1"/>
                </g>
                <g fill="#1C1B1B" transform="translate(-133.000000, -265.000000) translate(133.000000, 265.000000) translate(50.107455, 72.692516) scale(-1, 1) translate(-50.107455, -72.692516) translate(45.607455, 69.192516)">
                    <circle cx=".868" cy="1.364" r="1"/>
                    <circle cx="2.189" cy="3.845" r="1"/>
                    <circle cx="4.297" cy="1.736" r="1"/>
                    <circle cx="5.537" cy="5.581" r="1"/>
                    <circle cx="7.274" cy=".868" r="1"/>
                </g>
            </g>
        </g>
    </g>
</svg>
