<svg xmlns="http://www.w3.org/2000/svg" width="112" height="27" viewBox="0 0 112 27">
    <g fill="none" fill-rule="evenodd">
        <g fill="#1C1B1B" fill-rule="nonzero">
            <g>
                <path d="M21.631 17.35c.317 0 .62-.04.906-.119.288-.08.54-.218.758-.416.218-.198.396-.465.535-.802.138-.337.208-.763.208-1.277V2.585c0-.495-.07-.911-.208-1.248-.139-.337-.317-.604-.535-.802-.218-.198-.47-.337-.758-.416C22.25.039 21.948 0 21.631 0c-.633 0-1.193.183-1.678.55-.485.366-.728 1.044-.728 2.035V6.09h-2.674c-.554 0-1.01.06-1.366.179-.357.118-.634.272-.832.46-.198.188-.332.406-.401.654-.07.247-.104.49-.104.727 0 .298.034.57.104.817.069.248.203.466.4.654.199.188.476.337.833.446.356.109.812.163 1.366.163h2.674v4.546c0 .514.064.94.193 1.277.129.337.307.604.535.802.228.198.485.337.772.416.287.08.59.119.906.119zM2.23 15.75l.092-.004c.317-.02.633-.075.95-.164.317-.089.595-.223.832-.4.812-.575 1.525-1.174 2.14-1.798.613-.624 1.158-1.253 1.633-1.887.456.594.995 1.199 1.62 1.813.623.613 1.361 1.247 2.213 1.9.218.16.445.263.683.313.238.05.465.074.683.074.357-.02.689-.114.995-.282.307-.168.57-.421.788-.758.396-.634.49-1.238.282-1.812-.208-.574-.629-1.09-1.263-1.545-.752-.535-1.361-1.035-1.827-1.5-.465-.466-.827-.95-1.084-1.456-.258-.505-.436-1.045-.535-1.619-.099-.574-.13-1.969-.15-2.722l-4.96-.132v.864c-.02.752-.099 1.43-.237 2.035-.139.604-.357 1.168-.654 1.693-.297.525-.693 1.03-1.188 1.515-.495.485-1.12.995-1.872 1.53-.634.456-1.055.97-1.263 1.545-.208.574-.113 1.178.283 1.812.237.396.534.664.89.802.357.139.704.198 1.04.179l-.091.003zm4.323 6.478v-3.151c0-.46-.07-.845-.208-1.157-.139-.312-.317-.56-.535-.743-.218-.184-.47-.312-.758-.385-.287-.074-.589-.11-.906-.11-.634 0-1.193.17-1.678.509-.486.34-.728.968-.728 1.886v4.047c0 .275.02.528.06.757.039.23.143.431.311.606.168.174.411.312.728.413.101.032.919-.56 2.453-1.776l1.26-.896zm22.241 2.73l.092-.003c.317-.02.639-.069.966-.148.327-.08.599-.218.817-.416.673-.594 1.257-1.213 1.753-1.857.495-.644.93-1.282 1.307-1.916.416.673.9 1.332 1.456 1.975.554.644 1.198 1.253 1.93 1.828.218.158.446.262.684.312.238.049.465.074.683.074.357-.02.688-.114.995-.282.307-.169.57-.421.788-.758.396-.634.49-1.233.282-1.797-.208-.565-.629-1.085-1.263-1.56-.891-.673-1.564-1.362-2.02-2.065-.455-.703-.777-1.416-.965-2.139-.189-.723-.288-1.47-.298-2.243-.01-.772-.014-1.574-.014-2.406V2.585c0-.495-.065-.911-.193-1.248-.13-.337-.303-.604-.52-.802-.218-.198-.47-.337-.758-.416-.287-.08-.59-.119-.906-.119-.634 0-1.188.183-1.664.55-.475.366-.713 1.044-.713 2.035v11.378c0 .773-.094 1.53-.282 2.273-.188.743-.51 1.475-.966 2.198-.455.723-1.138 1.451-2.05 2.184-.613.495-1.03 1.02-1.247 1.574-.218.555-.129 1.15.267 1.783.238.396.535.663.891.802.357.139.704.198 1.04.178l-.092.004zm14.65.532c.257 0 .514-.04.772-.119.257-.079.48-.218.668-.416.189-.198.342-.465.46-.802.12-.336.18-.762.18-1.277V2.585c0-.99-.214-1.669-.64-2.035-.425-.367-.906-.55-1.44-.55-.555 0-1.045.183-1.471.55-.426.366-.639 1.044-.639 2.035v7.308H39.58c-.554 0-1 .06-1.336.178-.337.12-.6.273-.788.46-.188.189-.312.407-.371.654-.06.248-.09.49-.09.728 0 .297.03.57.09.817.06.248.183.466.371.654s.45.336.788.445c.336.11.782.164 1.336.164h1.753v8.883c0 .515.06.94.178 1.277.12.337.273.604.461.802.188.198.41.337.668.416.258.08.525.12.803.12zm6.654 0c.258 0 .515-.04.773-.119.257-.079.48-.218.668-.416.188-.198.342-.465.46-.802.12-.336.179-.762.179-1.277V2.585c0-.99-.213-1.669-.639-2.035-.426-.367-.906-.55-1.44-.55-.555 0-1.045.183-1.471.55-.426.366-.639 1.044-.639 2.035v20.29c0 .516.06.942.178 1.278.12.337.273.604.46.802.189.198.412.337.67.416.257.08.524.12.801.12zM75.83 14.498c.317 0 .619-.04.906-.119.287-.08.54-.218.758-.416.218-.198.396-.465.534-.802.14-.337.208-.763.208-1.278V9.18h2.258c.555 0 1.01-.06 1.367-.178.356-.12.634-.273.832-.46.198-.189.331-.412.4-.67.07-.257.105-.534.105-.831 0-.238-.035-.48-.104-.728-.07-.247-.203-.47-.401-.668-.198-.198-.476-.362-.832-.49-.357-.13-.812-.194-1.367-.194h-2.258V2.585c0-.495-.069-.911-.208-1.248-.138-.337-.316-.604-.534-.802-.218-.198-.47-.337-.758-.416C76.45.039 76.146 0 75.83 0c-.634 0-1.193.183-1.679.55-.485.366-.727 1.044-.727 2.035v9.298c0 .515.064.941.193 1.278.128.337.307.604.534.802.228.198.486.337.773.416.287.08.59.119.906.119zm-9.24-.832c.555 0 .99-.054 1.308-.163.317-.11.56-.258.728-.446.168-.188.272-.406.312-.654.04-.247.059-.52.059-.817V2.882c0-.495-.06-.911-.178-1.248-.12-.337-.282-.604-.49-.802-.208-.198-.446-.337-.713-.416-.268-.08-.56-.119-.877-.119-.634 0-1.193.183-1.678.55-.486.366-.728 1.044-.728 2.035v.95h-3.446v-.95c0-.495-.07-.911-.208-1.248-.14-.337-.317-.604-.535-.802-.218-.198-.47-.337-.758-.416-.287-.08-.589-.119-.906-.119-.634 0-1.168.183-1.604.55-.436.366-.654 1.044-.654 2.035v8.704c0 .297.02.57.06.817.04.248.143.466.312.654.168.188.41.337.727.446.317.109.753.163 1.308.163h7.962zm-2.257-3.803h-3.446V7.635h3.446v2.228zm11.496 15.631c.317 0 .62-.037.906-.113.287-.076.54-.208.758-.397.218-.189.396-.444.535-.765.138-.32.208-.718.208-1.19V18.07c0-.283-.02-.543-.06-.78-.04-.235-.143-.443-.312-.622-.168-.18-.41-.322-.728-.426-.317-.103-.752-.155-1.307-.155l-2.406 2.831v4.111c0 .945.242 1.592.728 1.941.485.35 1.044.524 1.678.524zm9.361-.535l.092-.004c.654-.04 1.248-.227 1.783-.564.832-.535 1.58-1.179 2.243-1.931.663-.753 1.253-1.575 1.768-2.466.514.832 1.124 1.62 1.827 2.362.703.743 1.5 1.43 2.391 2.065.218.158.446.262.683.312.238.049.466.074.684.074.356-.02.688-.114.995-.282.307-.169.57-.421.787-.758.396-.634.49-1.238.283-1.812-.208-.575-.63-1.09-1.263-1.545-.792-.555-1.45-1.114-1.976-1.679-.525-.564-.945-1.148-1.262-1.752-.317-.605-.54-1.253-.669-1.946-.129-.694-.193-1.456-.193-2.288V2.585c0-.495-.07-.911-.208-1.248-.138-.337-.322-.604-.55-.802-.227-.198-.49-.337-.787-.416-.297-.08-.604-.119-.92-.119-.318 0-.625.04-.922.119-.297.08-.56.218-.787.416-.228.198-.41.465-.55.802-.138.337-.208.753-.208 1.248v10.16c0 .832-.064 1.604-.193 2.317-.128.713-.351 1.387-.668 2.02-.317.634-.738 1.243-1.263 1.828-.525.584-1.183 1.153-1.975 1.708-.634.455-1.055.97-1.263 1.545-.208.574-.114 1.178.282 1.812.238.396.535.663.892.802.356.139.703.198 1.04.178l-.093.004zm18.096.531c.317 0 .619-.04.906-.119.287-.079.54-.218.758-.416.217-.198.396-.465.534-.802.139-.336.208-.762.208-1.277v-8.943h1.872c.554 0 1.01-.059 1.366-.178.357-.119.634-.272.832-.46.198-.188.332-.411.401-.669.07-.257.104-.535.104-.832 0-.237-.034-.48-.104-.727-.069-.248-.203-.47-.4-.669-.199-.198-.476-.361-.833-.49-.356-.129-.812-.193-1.366-.193h-1.872v-7.13c0-.495-.07-.911-.208-1.248-.138-.337-.317-.604-.534-.802-.218-.198-.47-.337-.758-.416-.287-.08-.59-.119-.906-.119-.634 0-1.193.183-1.679.55-.485.366-.728 1.044-.728 2.035v20.29c0 .516.065.942.194 1.278.128.337.307.604.534.802.228.198.486.337.773.416.287.08.589.12.906.12z" transform="translate(-151.000000, -215.000000) translate(151.750000, 216.000000)"/>
                <path d="M75.42 15.5c1.1-.376 2.297.21 2.674 1.308.377 1.1-.208 2.297-1.308 2.674-3.435 1.178-6.742 1.772-9.917 1.772-3.211 0-6.277-.607-9.18-1.821-1.072-.449-1.578-1.681-1.13-2.753.449-1.073 1.682-1.578 2.754-1.13 2.386.998 4.899 1.496 7.556 1.496 2.691 0 5.54-.512 8.551-1.545z" transform="translate(-151.000000, -215.000000) translate(151.750000, 216.000000)"/>
                <path d="M20.886 19.232c1.046-.507 2.305-.07 2.812.975.507 1.045.071 2.304-.975 2.812-3.27 1.587-6.574 2.388-9.893 2.388-3.319 0-6.623-.801-9.893-2.388-1.046-.508-1.482-1.767-.975-2.812.508-1.046 1.767-1.482 2.812-.975 2.713 1.316 5.392 1.967 8.056 1.967 2.664 0 5.343-.65 8.056-1.967z" transform="translate(-151.000000, -215.000000) translate(151.750000, 216.000000) translate(12.830153, 22.213904) scale(1, -1) translate(-12.830153, -22.213904)"/>
                <path d="M1.684 1.33c3.844-1.378 8.051-1.354 11.879.068 1.09.405 1.645 1.616 1.24 2.705-.405 1.09-1.616 1.645-2.706 1.24C9.251 4.286 6.127 4.25 3.26 5.24l-.154.053-.164.06C1.847 5.743.642 5.174.25 4.08c-.385-1.074.155-2.254 1.21-2.669l.06-.022.164-.06z" transform="translate(-151.000000, -215.000000) translate(151.750000, 216.000000)"/>
            </g>
        </g>
    </g>
</svg>
