<svg xmlns="http://www.w3.org/2000/svg" width="10" height="12" viewBox="0 0 10 12">
    <g fill="none" fill-rule="evenodd">
        <g fill-rule="nonzero">
            <g>
                <g>
                    <path fill="#1A1A1A" d="M3.914 0L4.566 0 4.566 0.652 3.914 0.652z" transform="translate(-184.000000, -783.000000) translate(100.000000, 776.000000) translate(84.458333, 7.458333)"/>
                    <path fill="#1A1A1A" d="M5.871 0L7.176 0 7.176 1.957 7.828 1.957 7.828 4.566 7.176 4.566 7.176 6.524 6.524 6.524 6.524 8.481 8.481 8.481 8.481 10.438 7.176 10.438 7.176 9.785 7.828 9.785 7.828 9.133 5.871 9.133 5.871 8.481 5.219 8.481 5.219 7.176 4.566 7.176 4.566 7.828 3.914 7.828 3.914 8.481 3.262 8.481 3.262 9.133 2.609 9.133 2.609 7.828 3.262 7.828 3.262 7.176 3.914 7.176 3.914 6.524 4.566 6.524 4.566 5.871 5.219 5.871 5.219 4.566 4.566 4.566 4.566 3.914 3.914 3.914 3.914 3.262 3.262 3.262 3.262.652 3.914.652 3.914 1.957 4.566 1.957 4.566 2.609 5.871 2.609 5.871 1.305 5.219 1.305 5.219.652 5.871.652zM0 2.609L1.957 2.609 1.957 3.262 2.609 3.262 2.609 3.914 1.957 3.914 1.957 4.566 0 4.566z" transform="translate(-184.000000, -783.000000) translate(100.000000, 776.000000) translate(84.458333, 7.458333)"/>
                    <path fill="#F5694A" d="M0.652 3.262L1.305 3.262 1.305 3.914 0.652 3.914z" transform="translate(-184.000000, -783.000000) translate(100.000000, 776.000000) translate(84.458333, 7.458333)"/>
                    <path fill="#1A1A1A" d="M0.652 9.133L2.609 9.133 2.609 9.785 0.652 9.785z" transform="translate(-184.000000, -783.000000) translate(100.000000, 776.000000) translate(84.458333, 7.458333)"/>
                </g>
            </g>
        </g>
    </g>
</svg>
