<svg xmlns="http://www.w3.org/2000/svg" width="299" height="152" viewBox="0 0 299 152">
    <g fill="none" fill-rule="evenodd">
        <g>
            <g>
                <g fill="#FDE06F" fill-rule="nonzero">
                    <path d="M7.315 2.138C8.067.358 10.12-.476 11.9.278c1.78.752 2.614 2.805 1.861 4.586-8.937 21.141-8.937 36.952-.465 47.803 4.24 5.429 9.097 7.202 15.895 6.674l.545-.046.543-.053.547-.063.557-.071.573-.081.594-.093.943-.16 1.023-.188 1.52-.3 1.742-.363 2.074-.435 1.729-.35 1.182-.225.791-.141.728-.12.677-.098.432-.057.42-.048.62-.062.62-.048.635-.037.217-.011c3.959-.182 7.264.547 10.08 2.53 7.338 5.17 8.714 13.012 4.644 22.778l-.324.755c-.893 2.024-2.013 4.127-3.358 6.305-1.016 1.644-3.173 2.154-4.817 1.138-1.645-1.016-2.155-3.172-1.139-4.817.245-.396.48-.786.706-1.17l.439-.76.414-.746c4.754-8.733 4.313-14.302-.596-17.76-.487-.342-.987-.616-1.538-.822l-.306-.106c-.052-.017-.105-.033-.157-.048l-.324-.086-.167-.038-.344-.066c-.059-.01-.118-.02-.178-.028l-.368-.046c-.376-.04-.779-.06-1.213-.06l-.446.006-.468.019-.492.032-.518.044-.269.028-.558.064-.587.076-.617.09-.984.158-1.06.186-1.139.215-1.223.242-.864.178-2.331.487-.875.178-.822.162-.776.147-.735.133-.7.12-.674.107-.651.096-.636.085-.628.075-.625.065-.313.03-.633.053c-8.991.699-16.154-1.916-21.954-9.345C-2.514 43.79-2.514 25.389 7.315 2.138z" transform="translate(-53.000000, -94.000000) translate(53.000000, 94.865968) translate(24.521634, 0.499095)"/>
                </g>
                <g fill="#F5694A" fill-rule="nonzero">
                    <path d="M8.079 1.18c1.28-1.447 3.493-1.582 4.94-.301 1.448 1.28 1.583 3.493.302 4.94l-.557.638-.268.313-.517.616-.49.6-.462.588c-.225.29-.44.574-.645.854l-.397.553c-4.033 5.73-3.76 9.243-.083 11.628 2.637 1.71 6.28 1.864 12.146.729l.897-.18 1.346-.29 4.038-.918 1.993-.438 1.113-.23.748-.143.69-.121.651-.103.625-.086.41-.05.41-.043.627-.058.214-.017c3.766-.297 6.835.25 9.354 2.023 6.97 4.91 6.97 12.928.962 22.655-1.016 1.645-3.172 2.155-4.817 1.139-1.644-1.016-2.154-3.173-1.138-4.817.29-.472.562-.93.814-1.374l.364-.656c3.082-5.711 2.778-9.115-.216-11.224l-.101-.069-.209-.13c-.213-.123-.44-.229-.688-.317l-.253-.083c-.608-.178-1.33-.26-2.233-.245l-.398.013-.421.025-.446.037-.232.023-.484.055-.512.068-.266.038-.554.086-.584.098-.935.17-1.008.198-1.087.226-1.168.254-4.013.907-.942.202-.232.049c-8.067 1.673-13.508 1.562-18.274-1.53-8.273-5.366-7.91-13.778-.193-23.684l.513-.648.265-.326.545-.654c.278-.329.563-.658.856-.99z" transform="translate(-53.000000, -94.000000) translate(53.000000, 94.865968) translate(242.750204, 104.133992) translate(25.259552, 23.000263) scale(-1, 1) translate(-25.259552, -23.000263)"/>
                </g>
                <g fill="#71ACD7">
                    <path d="M0 5.947L16.786 0 16.786 19.253 0 25.201z" transform="translate(-53.000000, -94.000000) translate(53.000000, 94.865968) translate(34.022642, 107.634032)"/>
                </g>
                <g fill="#F5D14A">
                    <path d="M0 5.947c5.444-.919 10.704-2.71 15.577-5.304L16.787 0v19.253l-1.816 1.26C10.575 23.565 5.351 25.201 0 25.201V5.947z" transform="translate(-53.000000, -94.000000) translate(53.000000, 94.865968) translate(220.500000, 66.186649) translate(8.393077, 12.600337) scale(-1, 1) translate(-8.393077, -12.600337)"/>
                </g>
                <g fill="#7197D7" transform="translate(-53.000000, -94.000000) translate(53.000000, 94.865968) translate(289.762614, 66.186649)">
                    <circle cx="4.5" cy="4.5" r="4.5"/>
                </g>
                <g fill="#F5694A" transform="translate(-53.000000, -94.000000) translate(53.000000, 94.865968) translate(0.000000, 86.887322)">
                    <circle cx="4.5" cy="4.5" r="4.5"/>
                </g>
            </g>
        </g>
    </g>
</svg>
